<?xml version="1.0" encoding="utf-8" ?><svg xmlns="http://www.w3.org/2000/svg" viewBox="899 246 124 124" width="124" height="124"><path fill="#75b9be" d="M926.777 287.316C938.814 289.322 949.126 290.29 961.384 293.111C958.113 305.346 949.546 328.044 945.175 340.794C943.109 346.625 940.707 352.623 938.481 358.419C934.689 337.767 928.346 307.505 926.777 287.316Z"/><path fill="#75b9be" d="M963.806 293.464C973.332 297.452 984.281 306.132 995.384 310.024C992.291 313.662 986.277 318.891 982.548 322.353L959.654 343.608C953.886 349.156 947.864 354.433 941.607 359.423C948.43 337.114 956.596 315.578 963.806 293.464Z"/><path fill="#75b9be" d="M977.244 256.47C980.942 263.128 994.134 299.644 996.021 307.679L987.924 303.003L965.449 291.086C967.9 282.123 973.294 264.273 977.244 256.47Z"/><path fill="#75b9be" d="M973.797 256.039C974.262 256.975 964.083 287.038 963.056 290.436C954.952 288.194 941.413 286.823 932.829 285.783C930.955 285.452 928.928 285.214 927.032 284.954C940.366 275.352 959.441 264.11 973.797 256.039Z"/></svg>
