<?xml version="1.0" encoding="utf-8" ?><svg xmlns="http://www.w3.org/2000/svg" xmlns:xlink="http://www.w3.org/1999/xlink" width="992" height="268" viewBox="176 252 992 268"><path fill="#987384" d="M179.489 307.209L216.251 307.207C215.074 322.122 215.929 347.521 215.986 363.014C234.681 363.02 254.553 362.565 273.093 362.798C273.134 344.663 273.47 325.242 272.987 307.216L309.767 307.257C309.963 314.749 309.195 322.511 309.24 330.014L309.874 388.77C309.941 407.225 310.775 438.657 309.447 455.704C308.147 456.444 305.074 456.212 303.408 456.213L273.158 456.27C273.135 435.733 273.217 415.196 273.406 394.659C255.918 394.191 233.92 394.222 216.469 394.78C216.346 415.328 216.363 435.876 216.518 456.424C204.422 456.663 191.784 456.504 179.644 456.532C179.298 406.759 179.247 356.983 179.489 307.209Z"/><path fill="#987384" d="M874.938 307.339C888.807 306.752 905.648 307.19 919.742 307.179C912.596 313.646 903.076 324.514 896.322 331.767C883.665 345.244 871.087 358.795 858.589 372.42C868.56 387.115 885.432 407.272 896.89 421.741C903.938 431.846 915.934 446.116 923.829 456.162C909.29 456.245 894.751 456.232 880.213 456.124C875.833 451.858 865.934 437.672 861.58 431.748C853.462 420.657 845.088 409.756 836.464 399.054C831.05 404.355 824.26 411.27 819.504 417.054C819.26 429.642 819.63 443.482 819.702 456.17L783.758 456.177L783.81 307.19L819.514 307.232C819.841 327.678 819.626 348.706 819.651 369.183C838.112 350.739 857.249 327.062 874.938 307.339Z"/><path fill="#987384" d="M671.456 296.105C682.6 295.804 694.827 296.049 706.055 296.044C705.589 315.425 706.015 336.576 706.016 356.098C714.538 348.023 724.26 342.087 736.301 342.029C752.98 341.948 769.418 352.713 772.953 369.551C775.791 383.067 775.05 397.754 775.045 411.499L775.047 456.091C763.392 456.056 751.736 456.083 740.08 456.174C739.705 445.776 739.928 434.154 739.917 423.662C740.132 407.604 746.051 372.233 722.54 373.059C701.725 373.79 705.573 404.416 705.727 418.37L706.085 456.192L671.399 456.208L671.456 296.105Z"/><path fill="#987384" d="M477.378 343.033C500.568 339.595 527.207 347.984 532.842 373.619C535.808 387.116 534.809 402.383 534.716 416.244L534.67 456.3C523.508 456.155 512.344 456.15 501.181 456.285L501.084 444.951C482.086 462.938 453.456 464.055 436.221 443.212C431.954 436.813 429.667 430.525 429.861 422.778C430.826 384.27 475.012 387.962 501.543 388.331C494.382 360.515 467.17 371.791 450.381 383.397C447.251 375.584 440.9 364.201 436.887 356.423C451.272 348.31 460.785 344.48 477.378 343.033ZM471.694 432.887C483.748 435.744 494.104 433.52 500.822 422.466C501.024 417.803 501.061 414.099 500.923 409.436L494.943 409.26C487.358 409.363 471.077 408.381 466.258 413.824C459.912 420.991 465.088 429.078 471.694 432.887Z"/><path fill="#987384" d="M1106.16 342.264L1108.03 342.244C1128.79 342.109 1145.78 350.057 1156.73 368.636C1164.54 381.906 1163.82 396.596 1163.89 411.429C1138.5 411.204 1113.11 411.108 1087.72 411.141C1100.05 435.32 1120.23 433.007 1139.67 418.587C1144.31 422.306 1148.91 426.082 1153.47 429.914C1155.89 432.074 1159.07 434.433 1161.66 436.467C1150.82 447.771 1142.56 454.922 1126.23 457.584C1108.96 460.398 1090.54 457.09 1076.25 446.715C1064.22 438.067 1056.22 424.895 1054.09 410.228C1049.53 380.497 1064.56 352.164 1094.78 344.385C1098.56 343.411 1102.31 342.857 1106.16 342.264ZM1086.99 389.135L1114.15 389.231L1131.72 389.248C1126.08 373.71 1121.27 368.873 1103.86 370.42C1091.71 374.705 1091.84 378.084 1086.99 389.135Z"/><path fill="#987384" d="M369.863 342.239C372.857 342.191 376.125 342.134 379.094 342.442C393.419 343.899 406.576 350.994 415.666 362.164C427.165 376.557 428.509 393.691 426.43 411.344C401.255 411.209 376.08 411.213 350.905 411.356C362.786 433.965 384.512 434.595 402.374 418.122C405.678 420.401 411.055 425.124 414.32 427.836C417.822 430.773 421.507 433.493 425.155 436.248C405.235 461.68 366.626 465.819 340.941 447.401C328.204 438.158 319.637 424.253 317.108 408.718C314.723 393.29 318.58 377.547 327.827 364.97C339.457 348.888 351.581 345.186 369.863 342.239ZM349.908 389.292L378.328 389.356L395.702 389.309L395.409 388.831C392.461 383.977 391.447 379.106 387.191 374.904C381.587 369.372 374.747 369.988 367.507 370.386C356.926 374.231 353.533 378.535 349.908 389.292Z"/><path fill="#987384" d="M599.99 317.924C608.355 317.044 624.982 317.535 633.976 317.559C634.015 325.874 633.594 337.479 634.432 345.411C643.568 345.279 652.914 345.358 662.068 345.337C661.91 355.145 661.9 364.955 662.036 374.764C652.729 374.733 643.422 374.749 634.115 374.814C634.1 376.737 633.948 379.147 634.055 381.048C635.321 403.524 625.396 437.186 661.961 423.747L665.569 443.671L666.868 451.105C650.713 461.322 624.486 462.206 610.016 448.243C598.407 437.04 599.681 416.559 599.733 401.58L599.863 375.375L585.532 375.404L585.509 345.25C590.067 345.082 595.244 345.208 599.855 345.227C599.771 336.178 599.562 326.951 599.99 317.924Z"/><path fill="#987384" d="M987.675 317.857C998.724 317.679 1010.03 317.786 1021.1 317.771C1020.89 326.945 1020.9 336.123 1021.13 345.297L1049.72 345.285C1049.47 355.057 1049.8 365.07 1050 374.86L1021.6 374.884C1020.76 387.754 1019.17 406.167 1023.5 418.22C1028.07 430.946 1040.23 427.549 1049.57 423.402L1053.77 443.568L1055.4 450.902C1037.69 459.714 1014.19 464.03 998.147 448.919C986.182 437.647 987.454 416.082 987.535 400.847C987.625 392.253 987.596 383.658 987.449 375.066C982.945 374.872 977.77 374.947 973.209 374.908C973.02 365.074 973.188 354.76 973.205 344.888C977.788 344.713 982.603 344.966 987.202 345.116C987.076 340.236 986.391 321.461 987.675 317.857Z"/><path fill="#987384" d="M548.799 295.684L577.916 295.485C578.301 309.695 578.443 453.339 577.392 455.932L575.695 456.191L543.505 456.19C543.792 440.625 542.254 301.97 544.107 297.142C545.869 295.376 545.636 295.928 548.799 295.684Z"/><path fill="#75B8BE" d="M926.777 287.316C938.814 289.322 949.126 290.29 961.384 293.111C958.113 305.346 949.546 328.044 945.175 340.794C943.109 346.625 940.707 352.623 938.481 358.419C934.689 337.767 928.346 307.505 926.777 287.316Z"/><path fill="#75B8BE" d="M963.806 293.464C973.332 297.452 984.281 306.132 995.384 310.024C992.291 313.662 986.277 318.891 982.548 322.353L959.654 343.608C953.886 349.156 947.864 354.433 941.607 359.423C948.43 337.114 956.596 315.578 963.806 293.464Z"/><path fill="#75B8BE" d="M977.244 256.47C980.942 263.128 994.134 299.644 996.021 307.679L987.924 303.003L965.449 291.086C967.9 282.123 973.294 264.273 977.244 256.47Z"/><path fill="#75B8BE" d="M973.797 256.039C974.262 256.975 964.083 287.038 963.056 290.436C954.952 288.194 941.413 286.823 932.829 285.783C930.955 285.452 928.928 285.214 927.032 284.954C940.366 275.352 959.441 264.11 973.797 256.039Z"/><defs><linearGradient id="gradient_0" gradientUnits="userSpaceOnUse" x1="910.61719" y1="447.35315" x2="964.94531" y2="419.10837"><stop offset="0" stop-color="#5AB0C2" stop-opacity="0.96470588"/><stop offset="1" stop-color="#76B8BD"/></linearGradient></defs><path fill="url(#gradient_0)" d="M937.231 362.044C937.766 362.892 938.661 363.939 938.138 364.949C932.079 376.48 921.663 391.51 925.719 405.372C931.99 426.8 960.504 432.923 963.729 456.321C966.075 473.339 954.472 480.604 945.044 492.256C939.085 499.621 939.188 506.142 940.494 514.857C938.772 512.616 938.57 510.182 938.407 507.396C937.226 487.138 961.435 479.241 960.614 459.001C959.946 442.572 944.072 434.205 933.481 423.978C926.011 416.763 921.875 410.033 921.43 399.479C920.929 387.587 928.975 370.47 937.231 362.044Z"/></svg>
